<?xml version="1.0" encoding="UTF-8" standalone="no"?>
<svg
   xmlns:dc="http://purl.org/dc/elements/1.1/"
   xmlns:cc="http://creativecommons.org/ns#"
   xmlns:rdf="http://www.w3.org/1999/02/22-rdf-syntax-ns#"
   xmlns:svg="http://www.w3.org/2000/svg"
   xmlns="http://www.w3.org/2000/svg"
   xmlns:sodipodi="http://sodipodi.sourceforge.net/DTD/sodipodi-0.dtd"
   xmlns:inkscape="http://www.inkscape.org/namespaces/inkscape"
   width="150mm"
   height="57mm"
   viewBox="0 0 150 57"
   version="1.1"
   id="svg8"
   inkscape:version="1.0.2-2 (e86c870879, 2021-01-15)"
   sodipodi:docname="logo.svg">
  <defs
     id="defs2">
    <clipPath
       clipPathUnits="userSpaceOnUse"
       id="clipEmfPath1">
      <path
         d="M 0,0 H 888.40315 V 381.2485 H 0 Z"
         id="path10" />
    </clipPath>
    <clipPath
       clipPathUnits="userSpaceOnUse"
       id="clipEmfPath2">
      <path
         d="M 2.0957031,2.0917969 V 380.76367 H 887.95898 V 2.0917969 Z"
         id="path13" />
    </clipPath>
    <pattern
       id="EMFhbasepattern"
       patternUnits="userSpaceOnUse"
       width="6"
       height="6"
       x="0"
       y="0" />
    <clipPath
       clipPathUnits="userSpaceOnUse"
       id="clipEmfPath1-0">
      <path
         d="M 0,0 L 888.40315,0 L 888.40315,381.2485 L 0,381.2485 z"
         id="path1034" />
    </clipPath>
    <clipPath
       clipPathUnits="userSpaceOnUse"
       id="clipEmfPath2-9">
      <path
         d="M 2.0957031,2.0917969 V 380.76367 H 887.95898 V 2.0917969 Z"
         id="path1037" />
    </clipPath>
    <pattern
       id="EMFhbasepattern-1"
       patternUnits="userSpaceOnUse"
       width="6"
       height="6"
       x="0"
       y="0" />
    <clipPath
       clipPathUnits="userSpaceOnUse"
       id="clipEmfPath1-8">
      <path
         d="M 0,0 L 888.40315,0 L 888.40315,381.2485 L 0,381.2485 z"
         id="path1075" />
    </clipPath>
    <clipPath
       clipPathUnits="userSpaceOnUse"
       id="clipEmfPath2-93">
      <path
         d="M 2.0957031,2.0917969 V 380.76367 H 887.95898 V 2.0917969 Z"
         id="path1078" />
    </clipPath>
    <pattern
       id="EMFhbasepattern-2"
       patternUnits="userSpaceOnUse"
       width="6"
       height="6"
       x="0"
       y="0" />
  </defs>
  <sodipodi:namedview
     id="base"
     pagecolor="#ffffff"
     bordercolor="#666666"
     borderopacity="1.0"
     inkscape:pageopacity="0.0"
     inkscape:pageshadow="2"
     inkscape:zoom="0.49497475"
     inkscape:cx="310.55891"
     inkscape:cy="613.44084"
     inkscape:document-units="mm"
     inkscape:current-layer="layer1"
     inkscape:document-rotation="0"
     showgrid="false"
     inkscape:window-width="1080"
     inkscape:window-height="1857"
     inkscape:window-x="-8"
     inkscape:window-y="-8"
     inkscape:window-maximized="1"
     showguides="true"
     inkscape:guide-bbox="true" />
  <metadata
     id="metadata5">
    <rdf:RDF>
      <cc:Work
         rdf:about="">
        <dc:format>image/svg+xml</dc:format>
        <dc:type
           rdf:resource="http://purl.org/dc/dcmitype/StillImage" />
        <dc:title></dc:title>
      </cc:Work>
    </rdf:RDF>
  </metadata>
  <g
     inkscape:label="Layer 1"
     inkscape:groupmode="layer"
     id="layer1">
    <g
       id="g1468">
      <g
         id="g1017"
         transform="matrix(0.70957513,0,0,0.71988878,44.212534,-48.719662)"
         style="stroke:none;stroke-width:0.295949;stroke-miterlimit:4;stroke-dasharray:none">
        <g
           aria-label="Active "
           transform="matrix(1.170137,0,0.04809436,0.85460079,0,0)"
           id="text40"
           style="font-style:italic;font-variant:normal;font-weight:normal;font-stretch:condensed;font-size:34.6723px;line-height:1.25;font-family:'Myriad Pro';-inkscape-font-specification:'Myriad Pro, Italic Condensed';font-variant-ligatures:normal;font-variant-caps:normal;font-variant-numeric:normal;font-variant-east-asian:normal;fill:#3e558b;fill-opacity:1;stroke:none;stroke-width:0.295949;stroke-miterlimit:4;stroke-dasharray:none">
          <path
             d="m 28.140428,95.658708 0.173361,7.073152 H 30.74085 L 30.012732,79.362728 h -2.773784 l -9.673571,23.369132 h 2.496405 l 2.843129,-7.073152 z m -4.542071,-1.976321 2.392388,-6.03298 c 0.658774,-1.560253 1.317548,-3.605919 1.941649,-5.408878 h 0.104017 c 0,1.768287 -0.03467,3.744608 0,5.408878 l 0.104017,6.03298 z"
             style="font-style:italic;font-variant:normal;font-weight:normal;font-stretch:condensed;font-size:34.6723px;font-family:'Myriad Pro';-inkscape-font-specification:'Myriad Pro, Italic Condensed';font-variant-ligatures:normal;font-variant-caps:normal;font-variant-numeric:normal;font-variant-east-asian:normal;fill:#3e558b;fill-opacity:1;stroke:none;stroke-width:0.295949;stroke-miterlimit:4;stroke-dasharray:none"
             id="path1390" />
          <path
             d="m 40.89977,100.37414 c -0.658774,0.24271 -1.35222,0.41607 -2.045666,0.41607 -1.941648,0 -2.669767,-1.664272 -2.669767,-4.126005 0,-3.77928 2.080338,-8.772091 5.547568,-8.772091 0.520085,0 0.936152,0.104016 1.248203,0.208033 l 0.658774,-2.11501 c -0.312051,-0.173361 -0.936152,-0.277378 -1.664271,-0.277378 -5.478223,0 -8.356024,6.34503 -8.356024,11.233824 0,3.259197 1.213531,5.998307 4.576744,5.998307 1.144186,0 2.11501,-0.20803 2.739111,-0.48541 z"
             style="font-style:italic;font-variant:normal;font-weight:normal;font-stretch:condensed;font-size:34.6723px;font-family:'Myriad Pro';-inkscape-font-specification:'Myriad Pro, Italic Condensed';font-variant-ligatures:normal;font-variant-caps:normal;font-variant-numeric:normal;font-variant-east-asian:normal;fill:#3e558b;fill-opacity:1;stroke:none;stroke-width:0.295949;stroke-miterlimit:4;stroke-dasharray:none"
             id="path1392" />
          <path
             d="m 47.522086,83.107336 -0.520085,2.843129 h -2.045665 l -0.346723,1.906976 h 2.010993 l -1.837632,9.673572 c -0.242706,1.352219 -0.312051,2.045665 -0.312051,2.739107 0,1.6296 1.005497,2.66977 2.773784,2.66977 0.554757,0 1.213531,-0.0347 1.80296,-0.2427 l 0.208034,-1.94165 c -0.312051,0.0693 -0.58943,0.0693 -1.005497,0.0693 -0.832135,0 -1.178858,-0.45074 -1.178858,-1.282874 0,-0.416068 0.06934,-1.213531 0.242706,-2.11501 l 1.802959,-9.569555 h 3.155179 l 0.381396,-1.906976 h -3.155179 l 0.797462,-3.91797 z"
             style="font-style:italic;font-variant:normal;font-weight:normal;font-stretch:condensed;font-size:34.6723px;font-family:'Myriad Pro';-inkscape-font-specification:'Myriad Pro, Italic Condensed';font-variant-ligatures:normal;font-variant-caps:normal;font-variant-numeric:normal;font-variant-east-asian:normal;fill:#3e558b;fill-opacity:1;stroke:none;stroke-width:0.295949;stroke-miterlimit:4;stroke-dasharray:none"
             id="path1394" />
          <path
             d="M 54.248502,102.73186 57.438354,85.950465 H 54.941948 L 51.752097,102.73186 Z M 56.77958,83.31537 c 0.936152,0 1.698943,-0.624101 1.768287,-1.768287 0.06935,-0.90148 -0.381395,-1.629598 -1.352219,-1.629598 -0.936152,0 -1.629598,0.866807 -1.698943,1.802959 -0.03467,0.936153 0.381395,1.594926 1.282875,1.594926 z"
             style="font-style:italic;font-variant:normal;font-weight:normal;font-stretch:condensed;font-size:34.6723px;font-family:'Myriad Pro';-inkscape-font-specification:'Myriad Pro, Italic Condensed';font-variant-ligatures:normal;font-variant-caps:normal;font-variant-numeric:normal;font-variant-east-asian:normal;fill:#3e558b;fill-opacity:1;stroke:none;stroke-width:0.295949;stroke-miterlimit:4;stroke-dasharray:none"
             id="path1396" />
          <path
             d="m 59.588001,85.950465 0.970825,16.781395 h 2.392388 l 7.454544,-16.781395 h -2.531077 l -3.883298,9.604227 C 63.33261,97.18429 62.88187,98.39782 62.500474,99.576678 h -0.138689 c 0.104017,-1.248203 0.06935,-2.323044 0.06935,-4.126003 l -0.277379,-9.50021 z"
             style="font-style:italic;font-variant:normal;font-weight:normal;font-stretch:condensed;font-size:34.6723px;font-family:'Myriad Pro';-inkscape-font-specification:'Myriad Pro, Italic Condensed';font-variant-ligatures:normal;font-variant-caps:normal;font-variant-numeric:normal;font-variant-east-asian:normal;fill:#3e558b;fill-opacity:1;stroke:none;stroke-width:0.295949;stroke-miterlimit:4;stroke-dasharray:none"
             id="path1398" />
          <path
             d="m 78.137624,99.958073 c -0.797463,0.450737 -1.698943,0.901477 -3.01649,0.901477 -1.317548,0 -2.184355,-0.76279 -2.56575,-2.149679 -0.312051,-1.040169 -0.173362,-2.912473 -0.104017,-3.397886 4.611415,0 8.182662,-1.733614 8.182662,-5.824946 0,-1.941648 -1.005496,-3.77928 -3.432557,-3.77928 -4.81945,0 -7.350528,6.761098 -7.350528,11.303169 0,3.224522 1.144186,5.928962 4.680761,5.928962 1.456236,0 2.739111,-0.38139 3.952642,-1.04017 z m 0.173361,-10.297672 c 0,2.739111 -2.843128,3.640591 -5.547568,3.640591 0.936153,-3.640591 2.531078,-5.478223 4.056659,-5.478223 0.970825,0 1.490909,0.658774 1.490909,1.837632 z"
             style="font-style:italic;font-variant:normal;font-weight:normal;font-stretch:condensed;font-size:34.6723px;font-family:'Myriad Pro';-inkscape-font-specification:'Myriad Pro, Italic Condensed';font-variant-ligatures:normal;font-variant-caps:normal;font-variant-numeric:normal;font-variant-east-asian:normal;fill:#3e558b;fill-opacity:1;stroke:none;stroke-width:0.295949;stroke-miterlimit:4;stroke-dasharray:none"
             id="path1400" />
        </g>
        <g
           aria-label="Weighing "
           id="text46"
           style="font-style:italic;font-variant:normal;font-weight:bold;font-stretch:normal;font-size:30.3161px;line-height:1.25;font-family:'Myriad Pro';-inkscape-font-specification:'Myriad Pro, Bold Italic';font-variant-ligatures:normal;font-variant-caps:normal;font-variant-numeric:normal;font-variant-east-asian:normal;fill:#f8040c;fill-opacity:1;stroke:none;stroke-width:0.295949;stroke-miterlimit:4;stroke-dasharray:none">
          <path
             d="m 33.896643,117.69099 3.516667,-8.2763 c 1.030748,-2.51623 1.728018,-4.69899 2.48592,-6.88175 h 0.06063 c -0.151581,2.30402 -0.212213,4.36552 -0.181897,6.76049 l 0.15158,8.39756 h 4.729312 l 9.003881,-20.433054 h -4.577731 l -3.546983,9.094834 c -0.788219,2.18275 -1.546121,4.39583 -2.243392,6.51796 h -0.06063 c 0.09095,-2.00087 0.181897,-4.03204 0.181897,-6.48765 l 0.06063,-9.125144 h -4.789944 l -3.637931,9.155464 c -0.970116,2.48592 -1.697702,4.54741 -2.425288,6.54828 h -0.06063 c 0.06063,-1.81897 0.121265,-4.15331 0.121265,-6.60891 v -9.094834 h -4.426151 l 0.788219,20.433054 z"
             style="font-style:italic;font-variant:normal;font-weight:bold;font-stretch:normal;font-size:30.3161px;font-family:'Myriad Pro';-inkscape-font-specification:'Myriad Pro, Bold Italic';font-variant-ligatures:normal;font-variant-caps:normal;font-variant-numeric:normal;font-variant-east-asian:normal;fill:#f8040c;fill-opacity:1;stroke:none;stroke-width:0.295949;stroke-miterlimit:4;stroke-dasharray:none"
             id="path1403" />
          <path
             d="m 63.000046,113.68926 c -1.182328,0.57601 -2.546552,0.9398 -4.153305,0.9398 -1.273277,0 -2.273708,-0.39411 -2.849714,-1.15201 -0.303161,-0.42443 -0.454741,-1.09138 -0.485057,-1.51581 5.972271,0.15158 9.640519,-1.21264 9.640519,-4.97184 0,-2.75876 -2.152443,-4.45646 -5.153737,-4.45646 -5.365949,0 -8.640088,4.69899 -8.640088,9.21609 0,3.88046 2.182759,6.27543 6.396697,6.27543 1.667385,0 3.819829,-0.30316 5.547846,-1.18232 z m -1.94023,-6.73017 c 0,1.39454 -1.697702,1.84928 -5.123421,1.81896 0.303161,-1.36422 1.485489,-3.06192 3.516668,-3.06192 1.000431,0 1.606753,0.51537 1.606753,1.24296 z"
             style="font-style:italic;font-variant:normal;font-weight:bold;font-stretch:normal;font-size:30.3161px;font-family:'Myriad Pro';-inkscape-font-specification:'Myriad Pro, Bold Italic';font-variant-ligatures:normal;font-variant-caps:normal;font-variant-numeric:normal;font-variant-east-asian:normal;fill:#f8040c;fill-opacity:1;stroke:none;stroke-width:0.295949;stroke-miterlimit:4;stroke-dasharray:none"
             id="path1405" />
          <path
             d="m 70.457788,117.69099 2.819397,-14.82458 h -4.365518 l -2.819398,14.82458 z m 1.212644,-16.67386 c 1.39454,0 2.576868,-0.90948 2.576868,-2.455602 0,-1.303592 -0.909483,-2.152443 -2.213075,-2.152443 -1.333908,0 -2.516236,1.000431 -2.516236,2.48592 0,1.273275 0.879167,2.122125 2.091811,2.122125 z"
             style="font-style:italic;font-variant:normal;font-weight:bold;font-stretch:normal;font-size:30.3161px;font-family:'Myriad Pro';-inkscape-font-specification:'Myriad Pro, Bold Italic';font-variant-ligatures:normal;font-variant-caps:normal;font-variant-numeric:normal;font-variant-east-asian:normal;fill:#f8040c;fill-opacity:1;stroke:none;stroke-width:0.295949;stroke-miterlimit:4;stroke-dasharray:none"
             id="path1407" />
          <path
             d="m 74.065386,123.08725 c 1.030747,0.57601 2.849713,0.9398 4.850576,0.9398 1.970546,0 4.122989,-0.39411 5.729742,-1.66738 1.758334,-1.42486 2.607185,-3.85015 3.122559,-6.5786 l 2.243391,-12.21739 c -1.576437,-0.63663 -3.395403,-1.03074 -5.487214,-1.03074 -6.457329,0 -9.973997,4.85057 -9.94368,9.73146 0.03032,2.91035 1.818966,5.30532 4.759627,5.30532 1.758334,0 3.092242,-0.69727 4.244254,-2.21307 h 0.06063 l -0.242529,1.27327 c -0.636638,2.97098 -2.243391,3.9411 -4.42615,3.9411 -1.273276,0 -3.061926,-0.33348 -3.880461,-0.81854 z M 84.52444,110.11196 c -0.485057,2.48592 -1.909914,4.09268 -3.334771,4.09268 -1.333908,0 -2.000862,-1.09138 -2.000862,-2.60719 0,-2.78908 1.879598,-5.72974 4.517098,-5.72974 0.606322,0 1.24296,0.12126 1.576438,0.27284 z"
             style="font-style:italic;font-variant:normal;font-weight:bold;font-stretch:normal;font-size:30.3161px;font-family:'Myriad Pro';-inkscape-font-specification:'Myriad Pro, Bold Italic';font-variant-ligatures:normal;font-variant-caps:normal;font-variant-numeric:normal;font-variant-east-asian:normal;fill:#f8040c;fill-opacity:1;stroke:none;stroke-width:0.295949;stroke-miterlimit:4;stroke-dasharray:none"
             id="path1409" />
          <path
             d="m 95.407876,117.69099 1.303593,-6.79081 c 0.545689,-2.97098 2.09181,-4.85058 3.637931,-4.85058 1.09138,0 1.48549,0.69727 1.48549,1.69771 0,0.60632 -0.0606,1.24296 -0.1819,1.81896 l -1.54612,8.12472 h 4.36552 l 1.60675,-8.48851 c 0.15158,-0.84885 0.27285,-1.97055 0.27285,-2.66782 0,-2.54655 -1.42486,-4.00172 -3.72888,-4.00172 -1.94023,0 -3.486354,0.87916 -4.729314,2.24339 h -0.06063 l 1.667386,-8.609774 h -4.365519 l -4.092673,21.524434 z"
             style="font-style:italic;font-variant:normal;font-weight:bold;font-stretch:normal;font-size:30.3161px;font-family:'Myriad Pro';-inkscape-font-specification:'Myriad Pro, Bold Italic';font-variant-ligatures:normal;font-variant-caps:normal;font-variant-numeric:normal;font-variant-east-asian:normal;fill:#f8040c;fill-opacity:1;stroke:none;stroke-width:0.295949;stroke-miterlimit:4;stroke-dasharray:none"
             id="path1411" />
          <path
             d="m 112.47583,117.69099 2.8194,-14.82458 h -4.36552 l -2.8194,14.82458 z m 1.21265,-16.67386 c 1.39454,0 2.57686,-0.90948 2.57686,-2.455602 0,-1.303592 -0.90948,-2.152443 -2.21307,-2.152443 -1.33391,0 -2.51624,1.000431 -2.51624,2.48592 0,1.273275 0.87917,2.122125 2.09181,2.122125 z"
             style="font-style:italic;font-variant:normal;font-weight:bold;font-stretch:normal;font-size:30.3161px;font-family:'Myriad Pro';-inkscape-font-specification:'Myriad Pro, Bold Italic';font-variant-ligatures:normal;font-variant-caps:normal;font-variant-numeric:normal;font-variant-east-asian:normal;fill:#f8040c;fill-opacity:1;stroke:none;stroke-width:0.295949;stroke-miterlimit:4;stroke-dasharray:none"
             id="path1413" />
          <path
             d="m 120.47927,117.69099 1.24296,-6.5786 c 0.60632,-3.27414 2.27371,-5.06279 3.69856,-5.06279 1.1217,0 1.48549,0.72759 1.48549,1.78865 0,0.54569 -0.0606,1.1217 -0.15158,1.63707 l -1.57644,8.21567 h 4.39584 l 1.63707,-8.60978 c 0.12126,-0.72758 0.24253,-1.81896 0.24253,-2.48592 0,-2.57686 -1.39455,-4.06235 -3.81983,-4.06235 -1.97055,0 -3.78952,0.87916 -5.18406,2.78908 h -0.0606 l 0.27285,-2.45561 h -3.85015 c -0.21221,1.33391 -0.42442,2.94067 -0.81853,4.82026 l -1.8796,10.00432 z"
             style="font-style:italic;font-variant:normal;font-weight:bold;font-stretch:normal;font-size:30.3161px;font-family:'Myriad Pro';-inkscape-font-specification:'Myriad Pro, Bold Italic';font-variant-ligatures:normal;font-variant-caps:normal;font-variant-numeric:normal;font-variant-east-asian:normal;fill:#f8040c;fill-opacity:1;stroke:none;stroke-width:0.295949;stroke-miterlimit:4;stroke-dasharray:none"
             id="path1415" />
          <path
             d="m 133.15139,123.08725 c 1.03075,0.57601 2.84971,0.9398 4.85057,0.9398 1.97055,0 4.12299,-0.39411 5.72975,-1.66738 1.75833,-1.42486 2.60718,-3.85015 3.12256,-6.5786 l 2.24339,-12.21739 c -1.57644,-0.63663 -3.39541,-1.03074 -5.48722,-1.03074 -6.45733,0 -9.97399,4.85057 -9.94368,9.73146 0.0303,2.91035 1.81897,5.30532 4.75963,5.30532 1.75833,0 3.09224,-0.69727 4.24425,-2.21307 h 0.0606 l -0.24253,1.27327 c -0.63664,2.97098 -2.24339,3.9411 -4.42615,3.9411 -1.27328,0 -3.06193,-0.33348 -3.88046,-0.81854 z m 10.45905,-12.97529 c -0.48506,2.48592 -1.90991,4.09268 -3.33477,4.09268 -1.33391,0 -2.00086,-1.09138 -2.00086,-2.60719 0,-2.78908 1.8796,-5.72974 4.5171,-5.72974 0.60632,0 1.24296,0.12126 1.57643,0.27284 z"
             style="font-style:italic;font-variant:normal;font-weight:bold;font-stretch:normal;font-size:30.3161px;font-family:'Myriad Pro';-inkscape-font-specification:'Myriad Pro, Bold Italic';font-variant-ligatures:normal;font-variant-caps:normal;font-variant-numeric:normal;font-variant-east-asian:normal;fill:#f8040c;fill-opacity:1;stroke:none;stroke-width:0.295949;stroke-miterlimit:4;stroke-dasharray:none"
             id="path1417" />
        </g>
        <g
           aria-label="Solutions "
           transform="matrix(1.170137,0,0.04809436,0.85460079,0,0)"
           id="text40-3"
           style="font-style:italic;font-variant:normal;font-weight:normal;font-stretch:condensed;font-size:34.6723px;line-height:1.25;font-family:'Myriad Pro';-inkscape-font-specification:'Myriad Pro, Italic Condensed';font-variant-ligatures:normal;font-variant-caps:normal;font-variant-numeric:normal;font-variant-east-asian:normal;fill:#3e558b;fill-opacity:1;stroke:none;stroke-width:0.295949;stroke-miterlimit:4;stroke-dasharray:none">
          <path
             d="m 15.442788,170.66357 c 0.485413,0.41607 1.976321,0.93616 3.709936,0.93616 4.403382,0 6.969132,-3.05117 6.969132,-7.28119 0,-2.2537 -1.21353,-4.29936 -2.843128,-5.82494 -1.560254,-1.45624 -2.461733,-2.77379 -2.461733,-4.43806 0.03467,-2.2537 1.490908,-3.95264 3.813952,-3.95264 1.109514,0 1.872305,0.24271 2.565751,0.6241 l 0.76279,-2.14968 c -0.520084,-0.38139 -1.66427,-0.76279 -3.085834,-0.76279 -3.987315,0 -6.622409,2.8778 -6.622409,6.51839 0,2.21903 1.178858,4.09133 2.8778,5.79028 1.560254,1.52558 2.427061,2.84312 2.427061,4.68076 0,2.46173 -1.456236,4.54207 -4.264692,4.5074 -1.248203,0 -2.427061,-0.3814 -3.120507,-0.86681 z"
             style="font-style:italic;font-variant:normal;font-weight:normal;font-stretch:condensed;font-size:34.6723px;font-family:'Myriad Pro';-inkscape-font-specification:'Myriad Pro, Italic Condensed';font-variant-ligatures:normal;font-variant-caps:normal;font-variant-numeric:normal;font-variant-east-asian:normal;fill:#3e558b;fill-opacity:1;stroke:none;stroke-width:0.295949;stroke-miterlimit:4;stroke-dasharray:none"
             id="path1420" />
          <path
             d="m 35.760693,154.36759 c -5.027483,0 -7.419872,7.10783 -7.419872,11.61522 0,2.98182 0.970824,5.68626 4.056659,5.68626 5.166172,0 7.24651,-7.59323 7.24651,-11.85792 0,-2.2537 -0.520084,-5.44356 -3.883297,-5.44356 z m -0.416068,2.04567 c 1.456237,0 1.768288,1.52558 1.768288,3.2592 0,2.80845 -1.282875,9.95095 -4.334038,9.95095 -1.768287,0 -1.906976,-1.97633 -1.906976,-3.8833 0,-3.29387 1.698942,-9.32685 4.472726,-9.32685 z"
             style="font-style:italic;font-variant:normal;font-weight:normal;font-stretch:condensed;font-size:34.6723px;font-family:'Myriad Pro';-inkscape-font-specification:'Myriad Pro, Italic Condensed';font-variant-ligatures:normal;font-variant-caps:normal;font-variant-numeric:normal;font-variant-east-asian:normal;fill:#3e558b;fill-opacity:1;stroke:none;stroke-width:0.295949;stroke-miterlimit:4;stroke-dasharray:none"
             id="path1422" />
          <path
             d="m 43.111202,171.39169 4.542071,-23.99323 h -2.496406 l -4.542071,23.99323 z"
             style="font-style:italic;font-variant:normal;font-weight:normal;font-stretch:condensed;font-size:34.6723px;font-family:'Myriad Pro';-inkscape-font-specification:'Myriad Pro, Italic Condensed';font-variant-ligatures:normal;font-variant-caps:normal;font-variant-numeric:normal;font-variant-east-asian:normal;fill:#3e558b;fill-opacity:1;stroke:none;stroke-width:0.295949;stroke-miterlimit:4;stroke-dasharray:none"
             id="path1424" />
          <path
             d="m 57.326807,154.6103 -1.802959,9.67357 c -0.554757,2.98182 -2.288372,5.23552 -3.952642,5.23552 -1.040169,0 -1.456237,-0.69345 -1.456237,-1.73362 0,-0.8668 0.104017,-1.69894 0.312051,-2.63509 l 1.976321,-10.54038 h -2.496406 l -2.045665,10.95645 c -0.173362,0.90148 -0.277379,1.73361 -0.277379,2.66976 0,1.80296 0.832136,3.43256 2.808457,3.43256 1.629598,0 3.189851,-0.83213 4.507398,-2.91247 h 0.06934 l -0.208034,2.63509 h 2.219027 c 0.13869,-1.35222 0.312051,-3.29387 0.762791,-5.7556 l 2.080338,-11.02579 z"
             style="font-style:italic;font-variant:normal;font-weight:normal;font-stretch:condensed;font-size:34.6723px;font-family:'Myriad Pro';-inkscape-font-specification:'Myriad Pro, Italic Condensed';font-variant-ligatures:normal;font-variant-caps:normal;font-variant-numeric:normal;font-variant-east-asian:normal;fill:#3e558b;fill-opacity:1;stroke:none;stroke-width:0.295949;stroke-miterlimit:4;stroke-dasharray:none"
             id="path1426" />
          <path
             d="m 64.503916,151.76717 -0.520084,2.84313 h -2.045666 l -0.346723,1.90698 h 2.010993 l -1.837631,9.67357 c -0.242706,1.35222 -0.312051,2.04566 -0.312051,2.73911 0,1.6296 1.005497,2.66977 2.773784,2.66977 0.554757,0 1.21353,-0.0347 1.802959,-0.24271 l 0.208034,-1.94165 c -0.312051,0.0694 -0.589429,0.0694 -1.005497,0.0694 -0.832135,0 -1.178858,-0.45074 -1.178858,-1.28288 0,-0.41607 0.06935,-1.21353 0.242706,-2.11501 l 1.80296,-9.56955 h 3.155179 l 0.381395,-1.90698 h -3.155179 l 0.797463,-3.91797 z"
             style="font-style:italic;font-variant:normal;font-weight:normal;font-stretch:condensed;font-size:34.6723px;font-family:'Myriad Pro';-inkscape-font-specification:'Myriad Pro, Italic Condensed';font-variant-ligatures:normal;font-variant-caps:normal;font-variant-numeric:normal;font-variant-east-asian:normal;fill:#3e558b;fill-opacity:1;stroke:none;stroke-width:0.295949;stroke-miterlimit:4;stroke-dasharray:none"
             id="path1428" />
          <path
             d="m 71.230333,171.39169 3.189851,-16.78139 h -2.496405 l -3.189852,16.78139 z m 2.531078,-19.41648 c 0.936152,0 1.698942,-0.62411 1.768287,-1.76829 0.06934,-0.90148 -0.381395,-1.6296 -1.35222,-1.6296 -0.936152,0 -1.629598,0.86681 -1.698942,1.80296 -0.03467,0.93615 0.381395,1.59493 1.282875,1.59493 z"
             style="font-style:italic;font-variant:normal;font-weight:normal;font-stretch:condensed;font-size:34.6723px;font-family:'Myriad Pro';-inkscape-font-specification:'Myriad Pro, Italic Condensed';font-variant-ligatures:normal;font-variant-caps:normal;font-variant-numeric:normal;font-variant-east-asian:normal;fill:#3e558b;fill-opacity:1;stroke:none;stroke-width:0.295949;stroke-miterlimit:4;stroke-dasharray:none"
             id="path1430" />
          <path
             d="m 82.880186,154.36759 c -5.027483,0 -7.419871,7.10783 -7.419871,11.61522 0,2.98182 0.970824,5.68626 4.056658,5.68626 5.166173,0 7.246511,-7.59323 7.246511,-11.85792 0,-2.2537 -0.520085,-5.44356 -3.883298,-5.44356 z m -0.416067,2.04567 c 1.456236,0 1.768287,1.52558 1.768287,3.2592 0,2.80845 -1.282875,9.95095 -4.334037,9.95095 -1.768287,0 -1.906977,-1.97633 -1.906977,-3.8833 0,-3.29387 1.698943,-9.32685 4.472727,-9.32685 z"
             style="font-style:italic;font-variant:normal;font-weight:normal;font-stretch:condensed;font-size:34.6723px;font-family:'Myriad Pro';-inkscape-font-specification:'Myriad Pro, Italic Condensed';font-variant-ligatures:normal;font-variant-caps:normal;font-variant-numeric:normal;font-variant-east-asian:normal;fill:#3e558b;fill-opacity:1;stroke:none;stroke-width:0.295949;stroke-miterlimit:4;stroke-dasharray:none"
             id="path1432" />
          <path
             d="m 90.230695,171.39169 1.768288,-9.36152 c 0.589429,-3.15518 2.461733,-5.54757 4.021986,-5.54757 1.040169,0 1.456237,0.65878 1.456237,1.69895 0,0.8668 -0.104017,1.56025 -0.242706,2.32304 l -2.045666,10.8871 h 2.496405 l 2.045666,-10.92177 c 0.173362,-1.0055 0.312055,-1.76829 0.312055,-2.77378 0,-1.76829 -0.797467,-3.36322 -2.877805,-3.36322 -1.66427,0 -3.155179,0.86681 -4.507399,2.91248 h -0.06934 l 0.277378,-2.6351 h -2.184355 c -0.173361,1.35222 -0.416067,3.29387 -0.866807,5.7556 l -2.080338,11.02579 z"
             style="font-style:italic;font-variant:normal;font-weight:normal;font-stretch:condensed;font-size:34.6723px;font-family:'Myriad Pro';-inkscape-font-specification:'Myriad Pro, Italic Condensed';font-variant-ligatures:normal;font-variant-caps:normal;font-variant-numeric:normal;font-variant-east-asian:normal;fill:#3e558b;fill-opacity:1;stroke:none;stroke-width:0.295949;stroke-miterlimit:4;stroke-dasharray:none"
             id="path1434" />
          <path
             d="m 100.66705,170.69825 c 0.48541,0.38139 1.80296,0.90148 3.12051,0.90148 3.1205,0 5.47822,-1.80296 5.47822,-5.40888 0,-1.69894 -1.04017,-3.2592 -2.35772,-4.40338 -0.83213,-0.72812 -1.56025,-1.52558 -1.56025,-2.80846 0,-1.45624 0.97082,-2.60042 2.70444,-2.60042 0.69344,0 1.42156,0.20803 1.94165,0.52008 l 0.69344,-1.94165 c -0.52008,-0.34672 -1.49091,-0.6241 -2.63509,-0.6241 -3.15518,0 -5.20085,2.21903 -5.20085,5.06216 0,1.59492 1.04017,3.05116 2.18436,4.09133 0.97082,0.86681 1.69894,1.76829 1.69894,3.2592 0,1.59492 -1.0055,2.84312 -2.70444,2.84312 -1.2482,0 -2.08034,-0.45074 -2.60042,-0.79746 z"
             style="font-style:italic;font-variant:normal;font-weight:normal;font-stretch:condensed;font-size:34.6723px;font-family:'Myriad Pro';-inkscape-font-specification:'Myriad Pro, Italic Condensed';font-variant-ligatures:normal;font-variant-caps:normal;font-variant-numeric:normal;font-variant-east-asian:normal;fill:#3e558b;fill-opacity:1;stroke:none;stroke-width:0.295949;stroke-miterlimit:4;stroke-dasharray:none"
             id="path1436" />
        </g>
      </g>
      <path
         id="path142"
         style="fill:#f8040c;fill-opacity:1;stroke:none;stroke-width:0.211519;stroke-linecap:butt;stroke-linejoin:miter;stroke-miterlimit:4;stroke-dasharray:none;stroke-opacity:1"
         d="M 56.818052,2.8440363 17.282592,20.930185 h 39.53546 z" />
      <path
         id="path1162"
         style="fill:#f8040c;fill-opacity:1;stroke:none;stroke-width:0.211519;stroke-miterlimit:4;stroke-dasharray:none"
         d="m 15.054169,26.366969 v 5.29e-4 h -0.0677 v 10e-4 C 8.2172715,26.27993 1.8502338,31.420938 0.41113565,38.130603 -1.2619483,44.810017 2.2068336,52.320289 8.3377834,55.288729 c 2.0761176,1.05319 4.3951976,1.607595 6.7163856,1.605587 H 56.819062 V 44.91054 H 15.054169 v 0.0016 c -2.153618,0.08529 -3.850083,-2.362348 -3.043741,-4.389398 0.432486,-1.278911 1.711356,-2.191631 3.043741,-2.17351 v 0.0016 H 56.819062 V 26.366969 Z" />
    </g>
  </g>
</svg>
